<svg fill="#E2E5FB" xmlns="http://www.w3.org/2000/svg"  viewBox="0 0 50 50" width="50px" height="50px"><path d="M 8 4 C 5.792969 4 4 5.792969 4 8 L 4 17 L 9 17 L 9 9 L 41 9 L 41 23 L 46 23 L 46 8 C 46 5.792969 44.207031 4 42 4 Z M 2 18 C 0.898438 18 0 18.898438 0 20 L 0 44 C 0 45.101563 0.898438 46 2 46 L 21 46 C 22.101563 46 23 45.101563 23 44 L 23 20 C 23 18.898438 22.101563 18 21 18 Z M 4 22 L 19 22 L 19 40 L 4 40 Z M 37 24 C 35.898438 24 35 24.898438 35 26 L 35 44 C 35 45.101563 35.898438 46 37 46 L 48 46 C 49.101563 46 50 45.101563 50 44 L 50 26 C 50 24.898438 49.101563 24 48 24 Z M 39 28 L 46 28 L 46 40 L 39 40 Z M 24 32 L 24 43 L 34 43 L 34 39 L 30 39 L 30 36 L 34 36 L 34 32 Z M 11.5 41.5 C 12.050781 41.5 12.5 41.945313 12.5 42.5 C 12.5 43.054688 12.050781 43.5 11.5 43.5 C 10.949219 43.5 10.5 43.054688 10.5 42.5 C 10.5 41.945313 10.949219 41.5 11.5 41.5 Z M 42.5 41.5 C 43.054688 41.5 43.5 41.945313 43.5 42.5 C 43.5 43.054688 43.054688 43.5 42.5 43.5 C 41.945313 43.5 41.5 43.054688 41.5 42.5 C 41.5 41.945313 41.945313 41.5 42.5 41.5 Z"/></svg>