<svg fill="#E2E5FB" xmlns="http://www.w3.org/2000/svg"  viewBox="0 0 30 30" width="60px" height="60px"><path d="M 5 2 C 3.1650307 2 1 3.6273832 1 6.5 C 1 8.6547743 2.4270816 10.142098 3.9140625 10.935547 C 4.7267004 11.369168 5.5560955 11.636238 6.3164062 11.798828 C 6.107015 12.33317 6 12.85271 6 13.251953 C 6 14.850953 7 16.907 7 18 C 7 19.266 6 20.509 6 21 C 6 21.74 6.637125 23.905172 7.078125 24.701172 C 7.181125 24.888172 7.3768437 25 7.5898438 25 L 10.013672 25 C 10.013672 24.083 10.01325 23.480734 8.90625 22.927734 L 8.8457031 21.244141 C 8.8457031 21.244141 9.643375 20.40575 10.109375 20.09375 C 12.330375 18.61075 11.542437 16.912109 12.148438 16.912109 C 12.754437 16.912109 14.391234 19 20.240234 19 C 20.240234 19 20.497969 22.731844 21.417969 24.089844 C 21.822969 24.687844 22.221359 25 22.943359 25 L 25.046875 25 C 25.046875 24.083 24.766172 23.063859 23.201172 22.755859 L 23.035156 18.052734 C 23.035156 18.052734 24 16.827625 24 14.890625 C 24 12.953625 24.695312 11.964844 24.695312 11.964844 L 25.802734 11.964844 C 28.016734 11.964844 29 10.235 29 9.75 C 29 9.265 28.220359 9.1487188 27.943359 8.3867188 C 27.349359 6.3947188 26.959 6 26 6 L 26 4 C 24.339 4 23.5 6 23.5 6 C 20.174 7.042 21.315 10 17 10 C 15.339 10 12.608531 9 10.394531 9 C 9.1887303 9 8.2707205 9.3980036 7.59375 9.96875 C 6.8820723 9.8976539 5.769429 9.6576085 4.8554688 9.1699219 C 3.7529496 8.5816207 3 7.8182257 3 6.5 C 3 4.6306168 4.4029693 4 5 4 C 5.9023044 4 6.1484375 4.5253906 6.1484375 4.5253906 A 1.0005968 1.0005968 0 0 0 7.8515625 3.4746094 C 7.8515625 3.4746094 6.8656956 2 5 2 z"/></svg>