<?xml version="1.0"?><svg fill="#E2E5FB" xmlns="http://www.w3.org/2000/svg"  viewBox="0 0 30 30" width="60px" height="60px">    <path d="M 9.8867188 6 C 8.9864156 6 8.1506582 6.4733014 7.6875 7.2441406 A 1.0001 1.0001 0 0 0 7.6855469 7.2460938 L 5.5566406 10.796875 C 4.4254064 10.405466 3.2159447 10.001953 3.0019531 10.001953 C 2.6229531 10.001953 1.1429531 11.175266 1.0019531 11.447266 C 0.85995313 11.718266 0.5 12.884 0.5 16 C 0.5 19.116 1 21 1 21 L 1 22 C 1 22.552 1.448 23 2 23 L 4 23 C 4.552 23 5 22.552 5 22 L 5 21 L 15 21 L 25 21 L 25 22 C 25 22.552 25.448 23 26 23 L 28 23 C 28.552 23 29 22.552 29 22 L 29 21 C 29 21 29.5 19.116 29.5 16 C 29.5 12.884 29.141 11.719266 29 11.447266 C 28.859 11.175266 27.379 10 27 10 C 26.786008 10 25.574594 10.405466 24.443359 10.796875 L 22.314453 7.2460938 A 1.0001 1.0001 0 0 0 22.314453 7.2441406 C 21.851295 6.4732982 21.013584 6 20.113281 6 L 9.8867188 6 z M 9.8867188 8 L 20.113281 8 C 20.312978 8 20.496768 8.1042299 20.599609 8.2753906 L 22.458984 11.375 L 20.421875 11.064453 C 20.156875 11.024453 19.888219 11.111781 19.699219 11.300781 L 19 12 L 15 12 L 11 12 L 10.302734 11.302734 C 10.112734 11.112734 9.843125 11.023453 9.578125 11.064453 L 7.5410156 11.375 L 9.4023438 8.2753906 C 9.5053599 8.1051587 9.6876291 8 9.8867188 8 z M 1.28125 12.179688 C 1.28125 12.179688 2.057625 12.267625 2.515625 12.390625 C 2.973625 12.513625 3.2206406 12.814016 3.4316406 13.166016 C 3.6426406 13.518016 4.9453125 15.720703 4.9453125 15.720703 L 3.8359375 15.685547 C 3.8369375 15.685547 3.1491875 14.734437 2.8671875 14.523438 C 2.5851875 14.312437 1.828125 14.294922 1.828125 14.294922 L 1.28125 12.179688 z M 28.716797 12.179688 L 28.171875 14.294922 C 28.171875 14.294922 27.414813 14.312438 27.132812 14.523438 C 26.850812 14.734438 26.162109 15.685547 26.162109 15.685547 L 25.052734 15.720703 C 25.052734 15.720703 26.357359 13.518016 26.568359 13.166016 C 26.779359 12.814016 27.026375 12.513625 27.484375 12.390625 C 27.942375 12.267625 28.716797 12.179688 28.716797 12.179688 z M 10.988281 17 L 19.011719 17 C 19.345719 17 19.664625 17.139766 19.890625 17.384766 L 21.380859 19 L 8.6191406 19 L 10.109375 17.384766 C 10.335375 17.139766 10.654281 17 10.988281 17 z M 4.4257812 17.060547 L 7.6191406 17.371094 L 6.4179688 19 L 3.65625 19 C 3.34225 19 3.1300469 18.682578 3.2480469 18.392578 L 3.5859375 17.566406 C 3.7229375 17.230406 4.0637812 17.024547 4.4257812 17.060547 z M 25.574219 17.060547 C 25.936219 17.025547 26.277062 17.230406 26.414062 17.566406 L 26.751953 18.392578 C 26.869953 18.682578 26.65775 19 26.34375 19 L 23.582031 19 L 22.380859 17.371094 L 25.574219 17.060547 z"/></svg>