<?xml version="1.0"?><svg fill="#E2E5FB" xmlns="http://www.w3.org/2000/svg"  viewBox="0 0 30 30" width="60px" height="60px">    <path d="M 20.5 3 A 2.5 2.5 0 0 0 18 5.5 A 2.5 2.5 0 0 0 20.5 8 A 2.5 2.5 0 0 0 23 5.5 A 2.5 2.5 0 0 0 20.5 3 z M 18.498047 9 C 18.104613 9 17.737373 9.0995794 17.40625 9.2617188 A 1.0001 1.0001 0 0 0 17.0625 9.4453125 L 14.0625 11.835938 A 1.0001 1.0001 0 0 0 13.902344 11.996094 L 11.216797 15.378906 A 1.0001 1.0001 0 1 0 12.783203 16.621094 L 12.810547 16.585938 L 12.808594 16.59375 L 14.919922 14.271484 L 15.4375 13.957031 C 15.289417 14.746573 15.053767 15.984674 15.052734 15.990234 C 15.052311 15.992278 15.0512 15.994048 15.050781 15.996094 C 15.050781 15.996098 15.050781 16 15.050781 16 C 15.017985 16.161534 15 16.328824 15 16.5 C 15 17.271024 15.357278 17.951446 15.90625 18.410156 L 15.914062 18.433594 L 19.806641 21.5 L 20.917969 25.689453 L 21.011719 26.160156 A 1 1 0 0 0 22 27 A 1 1 0 0 0 23 26 A 1 1 0 0 0 22.980469 25.804688 L 21.980469 20.804688 A 1.0001 1.0001 0 0 0 21.820312 20.427734 L 19.949219 17.003906 C 19.951019 16.995104 19.949465 16.985398 19.951172 16.976562 L 20.933594 12.0625 L 20.931641 12.060547 C 20.97318 11.879786 21 11.693331 21 11.5 C 21 10.120659 19.880133 9.0010696 18.498047 9 z M 22.384766 12.742188 L 21.916016 15.007812 L 22.332031 15.380859 C 22.407031 15.448859 22.493938 15.505875 22.585938 15.546875 L 25.585938 16.910156 A 1 1 0 0 0 26 17 A 1 1 0 0 0 27 16 A 1 1 0 0 0 26.414062 15.089844 L 26.388672 15.078125 A 1 1 0 0 1 26.386719 15.078125 L 23.552734 13.789062 L 22.384766 12.742188 z M 10.6875 17.001953 C 10.298063 16.991125 9.9197969 17.209891 9.7480469 17.587891 L 9.0976562 19.011719 L 7.2753906 18.185547 C 6.7873906 17.963547 6.2441406 17.944766 5.7441406 18.134766 C 5.2441406 18.322766 4.8479063 18.694734 4.6289062 19.177734 L 3.1796875 22.347656 C 2.7246875 23.351656 3.1707813 24.539094 4.1757812 24.996094 L 5.0976562 25.414062 C 5.3486562 24.597063 6.101 24 7 24 C 7.675 24 8.2678594 24.335656 8.6308594 24.847656 C 8.6338594 24.840656 8.6395781 24.835125 8.6425781 24.828125 L 11.568359 18.417969 C 11.797359 17.915969 11.575266 17.320797 11.072266 17.091797 C 10.947016 17.035047 10.817312 17.005562 10.6875 17.001953 z M 14.957031 19.724609 L 14.443359 21.421875 L 12.214844 25.361328 L 12.140625 25.486328 L 12.142578 25.488281 A 1 1 0 0 0 12.109375 25.546875 L 12.101562 25.5625 A 1 1 0 0 0 12 26 A 1 1 0 0 0 13 27 A 1 1 0 0 0 13.808594 26.587891 L 13.810547 26.587891 L 13.826172 26.564453 A 1 1 0 0 1 13.828125 26.5625 L 17.154297 21.511719 L 14.957031 19.724609 z M 7 25 A 1 1 0 0 0 6 26 A 1 1 0 0 0 7 27 A 1 1 0 0 0 8 26 A 1 1 0 0 0 7 25 z"/></svg>